<svg xmlns="http://www.w3.org/2000/svg" xmlns:xlink="http://www.w3.org/1999/xlink" width="306.539" height="90.827" viewBox="0 0 306.539 90.827">
  <defs>
    <linearGradient id="linear-gradient" x1="0.915" y1="9.754" x2="-0.385" y2="10.424" gradientUnits="objectBoundingBox">
      <stop offset="0" stop-color="#2586ca"/>
      <stop offset="0.01" stop-color="#2487cb"/>
      <stop offset="0.26" stop-color="#1face8"/>
      <stop offset="0.51" stop-color="#2eb6ea"/>
      <stop offset="0.76" stop-color="#44b9e1"/>
      <stop offset="1" stop-color="#48badf"/>
    </linearGradient>
    <linearGradient id="linear-gradient-2" x1="1.077" y1="28.911" x2="-1.306" y2="28.911" gradientUnits="objectBoundingBox">
      <stop offset="0" stop-color="gold"/>
      <stop offset="0.41" stop-color="#ffac00"/>
      <stop offset="0.78" stop-color="#f89000"/>
      <stop offset="1" stop-color="#f58508"/>
    </linearGradient>
    <linearGradient id="linear-gradient-3" x1="0.862" y1="19.082" x2="-0.502" y2="20.85" gradientUnits="objectBoundingBox">
      <stop offset="0" stop-color="#df2939"/>
      <stop offset="1" stop-color="#b10050"/>
    </linearGradient>
    <linearGradient id="linear-gradient-4" x1="-0.188" y1="18.362" x2="0.421" y2="19.152" gradientUnits="objectBoundingBox">
      <stop offset="0" stop-color="#36905d"/>
      <stop offset="0.07" stop-color="#35985d"/>
      <stop offset="0.48" stop-color="#4ea55a"/>
      <stop offset="0.8" stop-color="#5da853"/>
      <stop offset="1" stop-color="#61a94f"/>
    </linearGradient>
  </defs>
  <g id="Group_252" data-name="Group 252" transform="translate(0)">
    <rect id="Rectangle_75" data-name="Rectangle 75" width="306.539" height="90.826" rx="5" transform="translate(0)" fill="#fff"/>
    <path id="Path_95" data-name="Path 95" d="M471.267,358.36A9.536,9.536,0,0,1,480.8,367.9v68.12a9.537,9.537,0,0,1-9.537,9.537H187.435a9.539,9.539,0,0,1-9.537-9.537h0V367.9a9.537,9.537,0,0,1,9.537-9.537H471.267m0-1.816H187.435A11.353,11.353,0,0,0,176.082,367.9v68.12a11.355,11.355,0,0,0,11.353,11.353H471.267a11.353,11.353,0,0,0,11.353-11.353V367.9A11.351,11.351,0,0,0,471.267,356.543Z" transform="translate(-176.082 -356.542)" fill="#c8c8c8"/>
    <path id="Path_96" data-name="Path 96" d="M278.869,384.335a9.65,9.65,0,1,0,9.7,9.65,9.515,9.515,0,0,0-9.375-9.653C279.083,384.333,278.976,384.333,278.869,384.335Zm0,15.509a5.859,5.859,0,1,1,5.436-6.253q.014.2.014.4a5.582,5.582,0,0,1-5.3,5.851Zm-21.14-15.509a9.65,9.65,0,1,0,9.673,9.65,9.515,9.515,0,0,0-9.376-9.653c-.107,0-.213,0-.32,0Zm0,15.509a5.858,5.858,0,1,1,5.411-6.274c.011.138.016.277.016.415a5.582,5.582,0,0,1-5.3,5.851l-.145.007ZM232.548,387.31V391.4h9.809a8.559,8.559,0,0,1-2.271,5.154,10.043,10.043,0,0,1-7.561,3,10.9,10.9,0,1,1,0-21.8,10.44,10.44,0,0,1,7.425,2.929l2.884-2.884a14.281,14.281,0,0,0-10.286-4.246,15.009,15.009,0,0,0-1.167,30c.388.014.779.014,1.167,0a13.255,13.255,0,0,0,14.01-13.783,13.306,13.306,0,0,0-.227-2.566Zm102.883,3.179a8.9,8.9,0,0,0-17.366,2.911c0,.2.007.391.018.586a9.446,9.446,0,0,0,9.239,9.648c.113,0,.229,0,.343,0a9.609,9.609,0,0,0,8.038-4.269l-3.292-2.271a5.517,5.517,0,0,1-4.746,2.679,4.906,4.906,0,0,1-4.678-2.929l12.92-5.336Zm-13.17,3.224a5.294,5.294,0,0,1,4.934-5.627l.107,0a3.741,3.741,0,0,1,3.588,2.044Zm-10.49,9.355h4.246V374.685h-4.246Zm-6.948-16.576h-.159a6.807,6.807,0,0,0-5.086-2.271,9.673,9.673,0,0,0,0,19.323,6.59,6.59,0,0,0,5.086-2.271h.136v1.385c0,3.7-1.976,5.677-5.154,5.677a5.338,5.338,0,0,1-4.859-3.429l-3.7,1.544a9.2,9.2,0,0,0,8.56,5.7c4.973,0,9.083-2.929,9.083-10.059V384.9h-3.906Zm-4.859,13.351a5.881,5.881,0,0,1,0-11.717,5.449,5.449,0,0,1,5.163,5.722l-.009.136a5.4,5.4,0,0,1-4.927,5.842c-.082.007-.166.011-.25.016Zm55.359-25.159H345.15v28.383H349.4V392.305h5.926a8.833,8.833,0,0,0,1.267-17.62A8.425,8.425,0,0,0,355.322,374.685Zm0,13.624H349.4v-9.673h6.017a4.871,4.871,0,0,1,0,9.741Zm26.181-4.087a7.949,7.949,0,0,0-7.561,4.337l3.769,1.567a4.018,4.018,0,0,1,3.86-2.089,4.086,4.086,0,0,1,4.535,3.585l.007.07v.3a9.368,9.368,0,0,0-4.428-1.09c-4.064,0-8.174,2.271-8.174,6.381a6.563,6.563,0,0,0,6.855,6.256l.184-.011A5.974,5.974,0,0,0,386,400.8h.136v2.271h4.087V392.146c0-4.973-3.769-7.856-8.606-7.856Zm-.522,15.554c-1.385,0-3.315-.7-3.315-2.407,0-2.271,2.407-3.02,4.541-3.02a7.524,7.524,0,0,1,3.86.954,5.132,5.132,0,0,1-4.973,4.541ZM405.118,384.9l-4.859,12.307h-.136L395.081,384.9H390.54l7.561,17.212-4.314,9.56h4.428L409.841,384.9Zm-38.17,18.165h4.246V374.685h-4.246Z" transform="translate(-124.147 -334.948)" fill="#6e6f6f"/>
    <path id="Path_97" data-name="Path 97" d="M187.088,364.172a4.537,4.537,0,0,0-1,3.179v50.227a4.546,4.546,0,0,0,1.045,3.179l.159.159L215.38,392.8v-.658l-28.133-28.133Z" transform="translate(-163.382 -347.051)" fill="url(#linear-gradient)"/>
    <path id="Path_98" data-name="Path 98" d="M208.292,391.7l-9.31-9.378v-.658l9.31-9.4.2.114,11.149,6.335c3.179,1.794,3.179,4.746,0,6.562l-11.1,6.312Z" transform="translate(-146.984 -336.568)" fill="url(#linear-gradient-2)"/>
    <path id="Path_99" data-name="Path 99" d="M224.4,386.148l-9.582-9.6-28.292,28.292a3.7,3.7,0,0,0,4.723.136l33.174-18.846" transform="translate(-162.816 -331.129)" fill="url(#linear-gradient-3)"/>
    <path id="Path_100" data-name="Path 100" d="M224.409,383.309l-33.174-18.846a3.7,3.7,0,0,0-4.723.136l28.315,28.292Z" transform="translate(-162.829 -347.478)" fill="url(#linear-gradient-4)"/>
    <path id="Path_101" data-name="Path 101" d="M224.124,380.673l-32.9,18.733a3.794,3.794,0,0,1-4.541,0h0l-.159.159h0l.159.159h0a3.774,3.774,0,0,0,4.541,0L224.4,380.877Z" transform="translate(-162.816 -325.882)" fill="#040506" opacity="0.2"/>
    <path id="Path_102" data-name="Path 102" d="M187.111,390.642a4.546,4.546,0,0,1-1.044-3.179v.341a4.546,4.546,0,0,0,1.044,3.179l.159-.159Z" transform="translate(-163.405 -317.254)" fill="#040506" opacity="0.12"/>
    <path id="Path_103" data-name="Path 103" d="M214.435,379.495l-11.353,6.426.2.2,11.149-6.312a3.975,3.975,0,0,0,2.271-3.27h0A4.221,4.221,0,0,1,214.435,379.495Z" transform="translate(-141.774 -331.129)" fill="#040506" opacity="0.12"/>
    <path id="Path_104" data-name="Path 104" d="M191.781,364.773l44.255,25.159a4.221,4.221,0,0,1,2.271,2.952h0a3.969,3.969,0,0,0-2.271-3.27l-44.255-25.159c-3.156-1.817-5.7-.318-5.7,3.315v.341C186.082,364.478,188.625,362.98,191.781,364.773Z" transform="translate(-163.375 -347.47)" fill="#fff" opacity="0.25"/>
    <path id="Path_105" data-name="Path 105" d="M217.352,377.171V363.547h4.155a6.811,6.811,0,0,1,5.018,1.885,7.384,7.384,0,0,1,0,9.855,6.813,6.813,0,0,1-5.018,1.885Zm1.748-1.68h2.407a5.115,5.115,0,0,0,3.747-1.362,5.138,5.138,0,0,0-3.747-8.9h-2.5Z" transform="translate(-123.642 -347.652)" fill="#6e6f6f" stroke="#6e6f6f" stroke-miterlimit="10" stroke-width="0.2"/>
    <path id="Path_106" data-name="Path 106" d="M223.312,377.167V363.543h1.748v13.624Z" transform="translate(-116.069 -347.648)" fill="#6e6f6f" stroke="#6e6f6f" stroke-miterlimit="10" stroke-width="0.2"/>
    <path id="Path_107" data-name="Path 107" d="M229.81,377.63a5.088,5.088,0,0,1-2.906-.976,4.545,4.545,0,0,1-1.862-2.725l1.59-.636a3.673,3.673,0,0,0,1.158,1.884,2.96,2.96,0,0,0,2,.772,3.176,3.176,0,0,0,1.953-.59,1.908,1.908,0,0,0,.817-1.635,2.084,2.084,0,0,0-.817-1.748,8.34,8.34,0,0,0-2.566-1.158,6.824,6.824,0,0,1-2.748-1.476,3.1,3.1,0,0,1-.931-2.271,3.386,3.386,0,0,1,1.158-2.543,4.239,4.239,0,0,1,3.02-1.113,4.383,4.383,0,0,1,2.816.863,4,4,0,0,1,1.408,1.885l-1.589.659a2.262,2.262,0,0,0-.84-1.2,2.973,2.973,0,0,0-3.474,0,1.7,1.7,0,0,0-.7,1.408,1.589,1.589,0,0,0,.659,1.294,6.325,6.325,0,0,0,1.93.931,16.233,16.233,0,0,1,1.68.636,7.6,7.6,0,0,1,1.362.818,3.22,3.22,0,0,1,1.045,1.249,4.028,4.028,0,0,1,.363,1.748,3.752,3.752,0,0,1-.409,1.771,3.312,3.312,0,0,1-1.09,1.226,5.376,5.376,0,0,1-1.453.7A5.457,5.457,0,0,1,229.81,377.63Z" transform="translate(-113.871 -347.816)" fill="#6e6f6f" stroke="#6e6f6f" stroke-miterlimit="10" stroke-width="0.2"/>
    <path id="Path_108" data-name="Path 108" d="M232,377.167h-1.748V363.543h4.541a4.3,4.3,0,0,1,3,1.158,3.949,3.949,0,0,1,.229,5.581c-.073.082-.15.157-.229.232a4.3,4.3,0,0,1-3,1.158H232Zm0-7.2h2.929a2.364,2.364,0,0,0,1.807-3.937l-.059-.059a2.271,2.271,0,0,0-1.771-.749H232Z" transform="translate(-107.251 -347.648)" fill="#6e6f6f" stroke="#6e6f6f" stroke-miterlimit="10" stroke-width="0.2"/>
    <path id="Path_109" data-name="Path 109" d="M246.83,375.569a7.086,7.086,0,0,1-9.991,0,7.073,7.073,0,1,1,9.886-10.118l.036.036a7.389,7.389,0,0,1,.068,10.082Zm-8.7-1.135a5.248,5.248,0,0,0,7.4,0,5.872,5.872,0,0,0-.068-7.811,5.243,5.243,0,0,0-7.4,0,5.838,5.838,0,0,0,0,7.811Z" transform="translate(-101.508 -347.821)" fill="#6e6f6f" stroke="#6e6f6f" stroke-miterlimit="10" stroke-width="0.2"/>
    <path id="Path_110" data-name="Path 110" d="M242.022,377.167V363.543h2.134l6.63,10.6h0v-10.6h1.748v13.624h-1.816l-6.948-11.1h0v11.1Z" transform="translate(-92.295 -347.648)" fill="#6e6f6f" stroke="#6e6f6f" stroke-miterlimit="10" stroke-width="0.2"/>
    <path id="Path_111" data-name="Path 111" d="M248.022,377.167V363.543h1.748v13.624Z" transform="translate(-84.671 -347.648)" fill="#6e6f6f" stroke="#6e6f6f" stroke-miterlimit="10" stroke-width="0.2"/>
    <path id="Path_112" data-name="Path 112" d="M250.162,377.167V363.544h4.927a3.989,3.989,0,0,1,2.77,1.044,3.428,3.428,0,0,1,1.2,2.657,2.973,2.973,0,0,1-.5,1.7,3.166,3.166,0,0,1-1.34,1.113h0a3.442,3.442,0,0,1,1.658,1.181,3.08,3.08,0,0,1,.659,1.93,3.566,3.566,0,0,1-1.226,2.77,4.206,4.206,0,0,1-2.906,1.113Zm1.748-7.788h3.179a2.18,2.18,0,0,0,1.753-3.513l-.05-.052a1.946,1.946,0,0,0-1.521-.658h-3.361Zm0,6.108h3.519a2.1,2.1,0,0,0,1.635-.7,2.248,2.248,0,0,0-1.635-3.815h-3.519Z" transform="translate(-81.952 -347.648)" fill="#6e6f6f" stroke="#6e6f6f" stroke-miterlimit="10" stroke-width="0.2"/>
    <path id="Path_113" data-name="Path 113" d="M255.312,377.167V363.543h1.748v13.624Z" transform="translate(-75.408 -347.648)" fill="#6e6f6f" stroke="#6e6f6f" stroke-miterlimit="10" stroke-width="0.2"/>
    <path id="Path_114" data-name="Path 114" d="M257.452,377.167V363.543H259.2v11.944h5.9v1.68Z" transform="translate(-72.689 -347.648)" fill="#6e6f6f" stroke="#6e6f6f" stroke-miterlimit="10" stroke-width="0.2"/>
    <path id="Path_115" data-name="Path 115" d="M269.762,365.223h-6.222v4.314h5.586v1.635h-5.586v4.314h6.2v1.68h-7.947V363.543h7.947Z" transform="translate(-67.174 -347.648)" fill="#6e6f6f" stroke="#6e6f6f" stroke-miterlimit="10" stroke-width="0.2"/>
    <path id="Path_116" data-name="Path 116" d="M272.62,377.617a5.089,5.089,0,0,1-2.906-.976,4.546,4.546,0,0,1-1.862-2.725l1.589-.636a3.674,3.674,0,0,0,1.158,1.885,2.961,2.961,0,0,0,2,.772,3.175,3.175,0,0,0,1.953-.59,1.908,1.908,0,0,0,.817-1.635,2.083,2.083,0,0,0-.817-1.748,8.339,8.339,0,0,0-2.566-1.158,6.823,6.823,0,0,1-2.747-1.476,3.1,3.1,0,0,1-.931-2.271,3.386,3.386,0,0,1,1.158-2.543,4.25,4.25,0,0,1,3.02-1.09,4.381,4.381,0,0,1,2.815.863,4,4,0,0,1,1.408,1.885l-1.589.659a2.262,2.262,0,0,0-.84-1.2,2.973,2.973,0,0,0-3.474,0,1.7,1.7,0,0,0-.7,1.408,1.589,1.589,0,0,0,.658,1.294,6.326,6.326,0,0,0,1.93.931,16.235,16.235,0,0,1,1.68.636,7.591,7.591,0,0,1,1.362.817,3.22,3.22,0,0,1,1.045,1.249,4.027,4.027,0,0,1,.363,1.748,3.751,3.751,0,0,1-.409,1.771,3.315,3.315,0,0,1-1.09,1.226,5.378,5.378,0,0,1-1.453.7A5.525,5.525,0,0,1,272.62,377.617Z" transform="translate(-59.474 -347.803)" fill="#6e6f6f" stroke="#6e6f6f" stroke-miterlimit="10" stroke-width="0.2"/>
    <path id="Path_117" data-name="Path 117" d="M277.988,377.462a4.8,4.8,0,0,1-3.656-1.476,5.427,5.427,0,0,1-1.408-3.883v-8.56h1.748v8.628a3.9,3.9,0,0,0,.886,2.725,3.5,3.5,0,0,0,4.882,0,3.909,3.909,0,0,0,.84-2.611v-8.742h1.748v8.56a5.521,5.521,0,0,1-1.362,3.883A4.776,4.776,0,0,1,277.988,377.462Z" transform="translate(-53.034 -347.648)" fill="#6e6f6f" stroke="#6e6f6f" stroke-miterlimit="10" stroke-width="0.2"/>
  </g>
</svg>
