<svg xmlns="http://www.w3.org/2000/svg" width="306.539" height="90.826" viewBox="0 0 306.539 90.826">
  <g id="Group_251" data-name="Group 251" transform="translate(0 0)">
    <path id="Path_70" data-name="Path 70" d="M323.722,447.369H38.822a10.764,10.764,0,0,1-10.74-10.74V367.283a10.74,10.74,0,0,1,10.74-10.74h284.9a10.9,10.9,0,0,1,10.9,10.74v69.346A10.9,10.9,0,0,1,323.722,447.369Z" transform="translate(-28.082 -356.543)" fill="#c8c8c8"/>
    <path id="Path_71" data-name="Path 71" d="M331.219,435.5a8.7,8.7,0,0,1-8.7,8.7H37.691a8.7,8.7,0,0,1-8.719-8.674V366.152a8.719,8.719,0,0,1,8.719-8.719h284.9a8.694,8.694,0,0,1,8.628,8.719Z" transform="translate(-26.951 -355.412)" fill="#fff"/>
    <path id="Path_72" data-name="Path 72" d="M80.257,385.741a13.167,13.167,0,0,1,6.267-11.036A13.465,13.465,0,0,0,75.9,368.961c-4.541-.477-8.787,2.679-11.081,2.679s-5.836-2.634-9.6-2.543a14.146,14.146,0,0,0-11.9,7.266c-5.154,8.9-1.317,22,3.61,29.2,2.475,3.52,5.336,7.47,9.083,7.334s5.064-2.271,9.514-2.271,5.7,2.271,9.559,2.271,6.449-3.542,8.833-7.107a29.2,29.2,0,0,0,4.042-8.22A12.718,12.718,0,0,1,80.257,385.741Z" transform="translate(-11.842 -340.827)" fill="#c8c8c8"/>
    <path id="Path_73" data-name="Path 73" d="M59.843,372.05a12.97,12.97,0,0,0,2.975-9.287,13.2,13.2,0,0,0-8.538,4.405,12.334,12.334,0,0,0-3.043,8.946A10.9,10.9,0,0,0,59.843,372.05Z" transform="translate(1.306 -348.64)" fill="#c8c8c8"/>
    <path id="Path_74" data-name="Path 74" d="M96.014,404.943H90.837l-2.816-8.878H78.212l-2.7,8.878H70.492l9.718-30.2h6.017Zm-8.833-12.489-2.566-7.879q-.409-1.318-1.43-5.745h0q-.453,1.928-1.431,5.7l-2.7,7.925Z" transform="translate(25.807 -333.417)" fill="#6e6f6f"/>
    <path id="Path_75" data-name="Path 75" d="M104.483,389.338a12.373,12.373,0,0,1-3,8.788,8.793,8.793,0,0,1-6.676,2.861,6.679,6.679,0,0,1-6.176-3.088h0v11.467h-4.95V385.886q0-3.5-.182-7.175h4.269l.272,3.451h0a8.6,8.6,0,0,1,13.783-.863A12,12,0,0,1,104.483,389.338Zm-4.927.182a9.077,9.077,0,0,0-1.431-5.245,4.943,4.943,0,0,0-4.223-2.157,5.013,5.013,0,0,0-3.247,1.181,5.524,5.524,0,0,0-1.907,3.111,6.364,6.364,0,0,0-.227,1.476v3.633a5.82,5.82,0,0,0,1.453,4.019,4.846,4.846,0,0,0,3.792,1.635,4.95,4.95,0,0,0,4.269-2.112A9.287,9.287,0,0,0,99.556,389.519Z" transform="translate(42.338 -328.961)" fill="#6e6f6f"/>
    <path id="Path_76" data-name="Path 76" d="M115.523,389.338a12.373,12.373,0,0,1-3,8.788,8.769,8.769,0,0,1-6.676,2.861,6.679,6.679,0,0,1-6.176-3.088h0v11.467h-4.95V385.886q0-3.5-.182-7.175h4.269l.272,3.451h0a8.6,8.6,0,0,1,13.783-.863A12.027,12.027,0,0,1,115.523,389.338Zm-4.927.182a9.077,9.077,0,0,0-1.431-5.245,4.951,4.951,0,0,0-4.314-2.157A5.013,5.013,0,0,0,101.6,383.3a5.524,5.524,0,0,0-1.907,3.111,6.488,6.488,0,0,0-.227,1.476v3.633a5.846,5.846,0,0,0,1.453,4.019,4.843,4.843,0,0,0,3.928,1.544,4.948,4.948,0,0,0,4.246-2.112A9.283,9.283,0,0,0,110.6,389.519Z" transform="translate(56.366 -328.961)" fill="#6e6f6f"/>
    <path id="Path_77" data-name="Path 77" d="M126.565,396.739a8.065,8.065,0,0,1-2.679,6.267,11.9,11.9,0,0,1-8.22,2.657,14.416,14.416,0,0,1-7.834-1.885l1.113-4.042a13.273,13.273,0,0,0,6.994,1.93,6.618,6.618,0,0,0,4.269-1.226,4.044,4.044,0,0,0,1.521-3.293,4.2,4.2,0,0,0-1.249-3.088,11.7,11.7,0,0,0-4.178-2.271q-7.9-3.045-7.9-8.742a7.673,7.673,0,0,1,2.838-6.222,10.964,10.964,0,0,1,7.4-2.271,14.653,14.653,0,0,1,6.812,1.43l-1.158,3.951a11.9,11.9,0,0,0-5.79-1.385,5.833,5.833,0,0,0-4,1.249,3.593,3.593,0,0,0-1.2,2.725,3.682,3.682,0,0,0,1.385,2.952,15.749,15.749,0,0,0,4.405,2.271,14.917,14.917,0,0,1,5.745,3.678A7.685,7.685,0,0,1,126.565,396.739Z" transform="translate(73.253 -333.683)" fill="#6e6f6f"/>
    <path id="Path_78" data-name="Path 78" d="M130.618,385.123h-5.336V395.7q0,4.039,2.816,4.042a8.718,8.718,0,0,0,2.157-.227l.159,3.656a11,11,0,0,1-3.769.545,5.813,5.813,0,0,1-4.541-1.748,8.586,8.586,0,0,1-1.612-5.881V385.123h-3.179V381.49h3.179v-4l4.746-1.43v5.427h5.336Z" transform="translate(85.299 -331.74)" fill="#6e6f6f"/>
    <path id="Path_79" data-name="Path 79" d="M145.722,389.418a11.967,11.967,0,0,1-2.861,8.243,10.239,10.239,0,0,1-7.993,3.315,9.742,9.742,0,0,1-7.652-3.179,11.586,11.586,0,0,1-2.838-8.015,11.827,11.827,0,0,1,2.929-8.288,10.168,10.168,0,0,1,7.9-3.225,9.942,9.942,0,0,1,7.72,3.179A11.478,11.478,0,0,1,145.722,389.418Zm-5.018.159a9.815,9.815,0,0,0-1.294-5.177,4.79,4.79,0,0,0-4.337-2.611,4.856,4.856,0,0,0-4.541,2.611,10.011,10.011,0,0,0-1.294,5.268,9.815,9.815,0,0,0,1.294,5.132,4.95,4.95,0,0,0,8.742,0A9.808,9.808,0,0,0,140.7,389.577Z" transform="translate(94.264 -328.95)" fill="#6e6f6f"/>
    <path id="Path_80" data-name="Path 80" d="M147.246,382.979a8.144,8.144,0,0,0-1.521-.136,4.54,4.54,0,0,0-3.951,1.93,7.246,7.246,0,0,0-1.2,4.292v11.353h-4.836V385.5q0-3.77-.182-6.812h4.223l.182,4.178h.136a7.455,7.455,0,0,1,2.43-3.451,5.86,5.86,0,0,1,3.5-1.158,7.573,7.573,0,0,1,1.2,0Z" transform="translate(108.476 -328.983)" fill="#6e6f6f"/>
    <path id="Path_81" data-name="Path 81" d="M161.1,388.544a11.365,11.365,0,0,1-.182,2.271H146.387a6.338,6.338,0,0,0,2.112,4.927,7.209,7.209,0,0,0,4.746,1.521,16.1,16.1,0,0,0,5.881-1.022l.749,3.361a18.2,18.2,0,0,1-7.312,1.34,10.589,10.589,0,0,1-7.97-2.975,11.02,11.02,0,0,1-2.884-7.993,12.485,12.485,0,0,1,2.7-8.2,9.287,9.287,0,0,1,7.629-3.5,8.1,8.1,0,0,1,7.13,3.5A11.78,11.78,0,0,1,161.1,388.544Zm-4.541-1.249a6.581,6.581,0,0,0-.931-3.724,4.222,4.222,0,0,0-3.86-2.021,4.539,4.539,0,0,0-3.86,1.976,7.2,7.2,0,0,0-1.431,3.769Z" transform="translate(116.283 -328.939)" fill="#6e6f6f"/>
    <path id="Path_82" data-name="Path 82" d="M83.943,370.546a7.448,7.448,0,0,1-2.384,6.063,9.557,9.557,0,0,1-6.312,1.862,30.084,30.084,0,0,1-3.474-.182V363.734a25.387,25.387,0,0,1,4.087-.318,8.827,8.827,0,0,1,5.881,1.7A6.812,6.812,0,0,1,83.943,370.546Zm-2.52,0a4.848,4.848,0,0,0-5.4-5.382,10.15,10.15,0,0,0-1.907.159v11.1a12.687,12.687,0,0,0,1.612,0,5.632,5.632,0,0,0,4.223-1.34A6.086,6.086,0,0,0,81.422,370.546Z" transform="translate(27.433 -347.839)" fill="#6e6f6f"/>
    <path id="Path_83" data-name="Path 83" d="M88.865,370.621a5.86,5.86,0,0,1-1.408,4.042,5.044,5.044,0,0,1-3.928,1.635,4.8,4.8,0,0,1-3.747-1.567,5.705,5.705,0,0,1-1.408-3.951,5.817,5.817,0,0,1,1.431-4.065,5,5,0,0,1,3.883-1.59,4.9,4.9,0,0,1,3.792,1.567A5.654,5.654,0,0,1,88.865,370.621Zm-2.475,0a4.8,4.8,0,0,0-.636-2.271,2.266,2.266,0,0,0-2.134-1.272,2.383,2.383,0,0,0-2.271,1.272,4.934,4.934,0,0,0-.636,2.589,4.844,4.844,0,0,0,.636,2.543,2.43,2.43,0,0,0,4.292,0,4.8,4.8,0,0,0,.749-2.7Z" transform="translate(35.817 -345.644)" fill="#6e6f6f"/>
    <path id="Path_84" data-name="Path 84" d="M99.531,365.263l-3.338,10.695H93.922l-1.385-4.541a34.083,34.083,0,0,1-.863-3.451h0a25.392,25.392,0,0,1-.863,3.451l-1.476,4.541H87.065l-3.043-10.695h2.407l1.249,5.177q.433,1.815.727,3.429h0q.272-1.342.886-3.406l1.521-5.109h1.93l1.453,5q.521,1.815.863,3.52h0a33.7,33.7,0,0,1,.727-3.52l1.294-5Z" transform="translate(42.999 -345.463)" fill="#6e6f6f"/>
    <path id="Path_85" data-name="Path 85" d="M101.428,376.074H99.158v-6.131q0-2.841-2.271-2.838a2.262,2.262,0,0,0-1.726.772,2.737,2.737,0,0,0-.658,1.839v6.358H92.232V365.379h1.93v1.68h0a3.424,3.424,0,0,1,1.226-1.294,4.015,4.015,0,0,1,2.271-.59,3.4,3.4,0,0,1,2.5.976,4.693,4.693,0,0,1,1.226,3.542Z" transform="translate(53.431 -345.579)" fill="#6e6f6f"/>
    <path id="Path_86" data-name="Path 86" d="M100.557,378.7H98.082V363.1h2.271Z" transform="translate(60.864 -348.207)" fill="#6e6f6f"/>
    <path id="Path_87" data-name="Path 87" d="M111.215,370.574a5.859,5.859,0,0,1-1.408,4.042,5.044,5.044,0,0,1-3.928,1.635,4.8,4.8,0,0,1-3.747-1.567,5.705,5.705,0,0,1-1.408-3.951,5.817,5.817,0,0,1,1.43-4.065,5,5,0,0,1,3.928-1.5,4.9,4.9,0,0,1,3.792,1.567A5.651,5.651,0,0,1,111.215,370.574Zm-2.475,0a4.8,4.8,0,0,0-.636-2.271,2.446,2.446,0,0,0-4.292,0,4.935,4.935,0,0,0-.636,2.589,4.849,4.849,0,0,0,.636,2.429,2.409,2.409,0,0,0,2.271,1.272,2.275,2.275,0,0,0,2.134-1.294,4.79,4.79,0,0,0,.522-2.566Z" transform="translate(64.216 -345.597)" fill="#6e6f6f"/>
    <path id="Path_88" data-name="Path 88" d="M115.307,376.125h-2.134l-.182-1.226h0a3.659,3.659,0,0,1-3.133,1.476,3.225,3.225,0,0,1-2.452-.976,3.05,3.05,0,0,1-.84-2.271,3.336,3.336,0,0,1,1.635-3,8.529,8.529,0,0,1,4.541-1.022v-.091q0-2.112-2.271-2.112a4.963,4.963,0,0,0-2.725.795l-.477-1.635a6.788,6.788,0,0,1,3.678-.931q4.2,0,4.2,4.428v3.951A16.754,16.754,0,0,0,115.307,376.125Zm-2.475-3.678v-1.658q-3.927,0-3.928,2.271a1.614,1.614,0,0,0,.454,1.249,1.664,1.664,0,0,0,1.158.409,2.386,2.386,0,0,0,1.453-.5,2.02,2.02,0,0,0,.817-1.272A1.941,1.941,0,0,0,112.832,372.447Z" transform="translate(71.637 -345.63)" fill="#6e6f6f"/>
    <path id="Path_89" data-name="Path 89" d="M121.992,378.7H119.88v-1.726h0a3.567,3.567,0,0,1-3.429,1.953,4.025,4.025,0,0,1-3.224-1.521,5.936,5.936,0,0,1-1.272-3.951,6.2,6.2,0,0,1,1.385-4.2,4.265,4.265,0,0,1,3.315-1.5,3.2,3.2,0,0,1,3.02,1.453h0V363.1h2.271v12.738Q121.9,377.384,121.992,378.7Zm-2.475-4.541v-1.794a3.447,3.447,0,0,0,0-.749,2.694,2.694,0,0,0-.863-1.453,2.27,2.27,0,0,0-1.589-.59,2.451,2.451,0,0,0-2.089,1.067,4.551,4.551,0,0,0-.772,2.7,4.231,4.231,0,0,0,.727,2.589A2.461,2.461,0,0,0,117.019,377a2.272,2.272,0,0,0,1.885-.885,2.948,2.948,0,0,0,.613-1.93Z" transform="translate(78.484 -348.207)" fill="#6e6f6f"/>
    <path id="Path_90" data-name="Path 90" d="M131.205,370.575a5.86,5.86,0,0,1-1.408,4.042,5.025,5.025,0,0,1-3.928,1.635,4.794,4.794,0,0,1-3.747-1.567,5.7,5.7,0,0,1-1.408-3.951,5.817,5.817,0,0,1,1.431-4.065,5,5,0,0,1,3.951-1.5,4.878,4.878,0,0,1,3.792,1.567A5.643,5.643,0,0,1,131.205,370.575Zm-2.475,0a4.8,4.8,0,0,0-.636-2.271,2.266,2.266,0,0,0-2.134-1.271,2.388,2.388,0,0,0-2.134,1.271,4.934,4.934,0,0,0-.636,2.589,4.849,4.849,0,0,0,.636,2.43,2.43,2.43,0,0,0,4.292,0,4.842,4.842,0,0,0,.613-2.589Z" transform="translate(89.616 -345.598)" fill="#6e6f6f"/>
    <path id="Path_91" data-name="Path 91" d="M136.108,376.074h-2.271v-6.131q0-2.841-2.271-2.838a2.135,2.135,0,0,0-1.726.772,2.737,2.737,0,0,0-.659,1.839v6.358h-2.271V365.379H129v1.68h0a3.477,3.477,0,0,1,1.226-1.294,4.015,4.015,0,0,1,2.271-.59,3.4,3.4,0,0,1,2.5.976,4.693,4.693,0,0,1,1.226,3.542Z" transform="translate(97.497 -345.579)" fill="#6e6f6f"/>
    <path id="Path_92" data-name="Path 92" d="M141.732,368.521h-2.611v5.2c0,1.317.454,1.975,1.385,1.975a4.192,4.192,0,0,0,1.067,0v1.817a5.379,5.379,0,0,1-1.839.272,2.846,2.846,0,0,1-2.271-.863,4.208,4.208,0,0,1-.795-2.884v-5.518H135.1V366.75h1.567V364.8l2.271-.7v2.657h2.611Z" transform="translate(107.904 -346.95)" fill="#6e6f6f"/>
    <path id="Path_93" data-name="Path 93" d="M148.581,378.7H146.31v-6.085q0-2.885-2.157-2.884a2.271,2.271,0,0,0-2.271,1.68,3.05,3.05,0,0,0,0,.863V378.7h-2.271V363.1h2.271v6.449h0a3.586,3.586,0,0,1,3.224-1.748,3.317,3.317,0,0,1,2.384.84,4.879,4.879,0,0,1,1.2,3.588Z" transform="translate(113.635 -348.207)" fill="#6e6f6f"/>
    <path id="Path_94" data-name="Path 94" d="M154.684,370.23a5.829,5.829,0,0,1,0,1.09h-7.289a3.116,3.116,0,0,0,1.045,2.43,3.555,3.555,0,0,0,2.271.749,7.917,7.917,0,0,0,2.884-.5l.363,1.658a9.114,9.114,0,0,1-3.588.658,5.177,5.177,0,0,1-3.906-1.453,5.41,5.41,0,0,1-1.408-3.928,6.135,6.135,0,0,1,1.317-4.042,4.538,4.538,0,0,1,3.746-1.726,3.97,3.97,0,0,1,3.5,1.726A5.748,5.748,0,0,1,154.684,370.23Zm-2.271-.613a3.188,3.188,0,0,0-.454-1.839,2.066,2.066,0,0,0-1.885-1,2.269,2.269,0,0,0-1.885.977,3.589,3.589,0,0,0-.7,1.839Z" transform="translate(120.543 -345.593)" fill="#6e6f6f"/>
  </g>
</svg>
