<svg xmlns="http://www.w3.org/2000/svg" width="67.107" height="67.107" viewBox="0 0 67.107 67.107">
    <defs>
        <style>
            .cls-1,.cls-2{fill:none;stroke:#fff;stroke-miterlimit:10}.cls-1{stroke-width:3px}.cls-2{stroke-width:1.157px}.cls-3{fill:#fff}
        </style>
    </defs>
    <g id="Group_262" data-name="Group 262" transform="translate(1.5 1.5)">
        <rect id="Rectangle_82" width="64.107" height="64.107" class="cls-1" data-name="Rectangle 82" rx="6.581"/>
        <g id="Group_261" data-name="Group 261" transform="translate(7.592 7.591)">
            <g id="Group_258" data-name="Group 258">
                <rect id="Rectangle_83" width="14.948" height="14.948" class="cls-2" data-name="Rectangle 83" rx="1.535"/>
                <rect id="Rectangle_84" width="7.881" height="7.881" class="cls-3" data-name="Rectangle 84" rx=".809" transform="translate(3.534 3.534)"/>
            </g>
            <g id="Group_259" data-name="Group 259" transform="translate(33.975 33.975)">
                <rect id="Rectangle_85" width="14.948" height="14.948" class="cls-2" data-name="Rectangle 85" rx="1.535"/>
                <rect id="Rectangle_86" width="7.881" height="7.881" class="cls-3" data-name="Rectangle 86" rx=".809" transform="translate(3.534 3.534)"/>
            </g>
            <g id="Group_260" data-name="Group 260" transform="translate(33.975)">
                <rect id="Rectangle_87" width="14.948" height="14.948" class="cls-2" data-name="Rectangle 87" rx="1.535"/>
                <rect id="Rectangle_88" width="7.881" height="7.881" class="cls-3" data-name="Rectangle 88" rx=".809" transform="translate(3.534 3.534)"/>
            </g>
        </g>
        <path id="Rectangle_89" d="M0 0h5.018v5.018H0z" class="cls-3" data-name="Rectangle 89" transform="translate(32.053 17.564)"/>
        <path id="Rectangle_90" d="M0 0h5.018v5.018H0z" class="cls-3" data-name="Rectangle 90" transform="translate(27.035 22.583)"/>
        <path id="Rectangle_91" d="M0 0h5.018v5.018H0z" class="cls-3" data-name="Rectangle 91" transform="translate(6.963 27.6)"/>
        <path id="Rectangle_92" d="M0 0h5.018v5.018H0z" class="cls-3" data-name="Rectangle 92" transform="translate(11.981 27.6)"/>
        <path id="Rectangle_93" d="M0 0h5.018v5.018H0z" class="cls-3" data-name="Rectangle 93" transform="translate(22.017 27.6)"/>
        <path id="Rectangle_94" d="M0 0h5.018v5.018H0z" class="cls-3" data-name="Rectangle 94" transform="translate(32.053 27.6)"/>
        <path id="Rectangle_95" d="M0 0h5.018v5.018H0z" class="cls-3" data-name="Rectangle 95" transform="translate(37.072 27.6)"/>
        <path id="Rectangle_96" d="M0 0h5.018v5.018H0z" class="cls-3" data-name="Rectangle 96" transform="translate(47.108 27.6)"/>
        <path id="Rectangle_97" d="M0 0h5.018v5.018H0z" class="cls-3" data-name="Rectangle 97" transform="translate(16.999 32.618)"/>
        <path id="Rectangle_98" d="M0 0h5.018v5.018H0z" class="cls-3" data-name="Rectangle 98" transform="translate(32.053 32.618)"/>
        <path id="Rectangle_99" d="M0 0h5.018v5.018H0z" class="cls-3" data-name="Rectangle 99" transform="translate(42.09 32.618)"/>
        <path id="Rectangle_100" d="M0 0h5.018v5.018H0z" class="cls-3" data-name="Rectangle 100" transform="translate(52.126 32.618)"/>
        <path id="Rectangle_101" d="M0 0h5.018v5.018H0z" class="cls-3" data-name="Rectangle 101" transform="translate(6.963 37.637)"/>
        <path id="Rectangle_102" d="M0 0h5.018v5.018H0z" class="cls-3" data-name="Rectangle 102" transform="translate(16.999 37.637)"/>
        <path id="Rectangle_103" d="M0 0h5.018v5.018H0z" class="cls-3" data-name="Rectangle 103" transform="translate(27.035 37.637)"/>
        <path id="Rectangle_104" d="M0 0h5.018v5.018H0z" class="cls-3" data-name="Rectangle 104" transform="translate(32.053 37.637)"/>
        <path id="Rectangle_105" d="M0 0h5.018v5.018H0z" class="cls-3" data-name="Rectangle 105" transform="translate(11.981 42.654)"/>
        <path id="Rectangle_106" d="M0 0h5.018v5.018H0z" class="cls-3" data-name="Rectangle 106" transform="translate(16.999 42.654)"/>
        <path id="Rectangle_107" d="M0 0h5.018v5.018H0z" class="cls-3" data-name="Rectangle 107" transform="translate(22.017 42.654)"/>
        <path id="Rectangle_108" d="M0 0h5.018v5.018H0z" class="cls-3" data-name="Rectangle 108" transform="translate(27.035 42.654)"/>
        <path id="Rectangle_109" d="M0 0h5.018v5.018H0z" class="cls-3" data-name="Rectangle 109" transform="translate(11.981 47.673)"/>
        <path id="Rectangle_110" d="M0 0h5.018v5.018H0z" class="cls-3" data-name="Rectangle 110" transform="translate(22.017 47.673)"/>
        <path id="Rectangle_111" d="M0 0h5.018v5.018H0z" class="cls-3" data-name="Rectangle 111" transform="translate(32.053 47.673)"/>
        <path id="Rectangle_112" d="M0 0h5.018v5.018H0z" class="cls-3" data-name="Rectangle 112" transform="translate(16.999 52.691)"/>
        <path id="Rectangle_113" d="M0 0h5.018v5.018H0z" class="cls-3" data-name="Rectangle 113" transform="translate(27.035 52.691)"/>
        <path id="Rectangle_114" d="M0 0h5.018v5.018H0z" class="cls-3" data-name="Rectangle 114" transform="translate(32.053 52.691)"/>
    </g>
</svg>
