<svg xmlns="http://www.w3.org/2000/svg" width="36.992" height="82.563" viewBox="0 0 36.992 82.563">
    <defs>
        <style>
            .cls-1{fill:#fff}
        </style>
    </defs>
    <g id="Group_269" data-name="Group 269">
        <g id="Group_263" data-name="Group 263" transform="translate(16.121 12.962)">
            <rect id="Rectangle_115" width="2.362" height="20.681" class="cls-1" data-name="Rectangle 115" rx="1.181" transform="translate(1.194 1.194)"/>
            <path id="Path_118" d="M1689.885-7193.923a2.378 2.378 0 0 1-2.375-2.375v-18.322a2.378 2.378 0 0 1 2.375-2.375 2.379 2.379 0 0 1 2.375 2.375v18.322a2.378 2.378 0 0 1-2.375 2.375z" class="cls-1" data-name="Path 118" transform="translate(-1687.51 7216.995)"/>
        </g>
        <g id="Group_264" data-name="Group 264" transform="translate(16.122)">
            <rect id="Rectangle_116" width="20.68" height="2.361" class="cls-1" data-name="Rectangle 116" rx="1.18" transform="rotate(-45 18.855 6.814)"/>
            <path id="Path_119" d="M1689.885-7215.566a2.359 2.359 0 0 1-1.679-.7 2.375 2.375 0 0 1 0-3.357l12.953-12.956a2.377 2.377 0 0 1 3.358 0 2.379 2.379 0 0 1 0 3.361l-12.952 12.953a2.36 2.36 0 0 1-1.68.699z" class="cls-1" data-name="Path 119" transform="translate(-1687.511 7233.271)"/>
        </g>
        <g id="Group_265" data-name="Group 265" transform="translate(1.064 30.529)">
            <path id="Path_120" d="M1694.455-7142.9h-16.845a2.641 2.641 0 0 1-2.416-2.519l-6.552-45.863a3.6 3.6 0 0 1 .746-2.851 2.2 2.2 0 0 1 1.669-.8h29.952a2.2 2.2 0 0 1 1.669.8 3.61 3.61 0 0 1 .746 2.851l-6.552 45.863a2.64 2.64 0 0 1-2.417 2.519zm-16.728-2.388h16.609a1.044 1.044 0 0 0 .169-.471l6.552-45.859a1.36 1.36 0 0 0-.166-.93h-29.719a1.362 1.362 0 0 0-.166.93l6.552 45.859a1.038 1.038 0 0 0 .169.471z" class="cls-1" data-name="Path 120" transform="translate(-1668.6 7194.935)"/>
        </g>
        <g id="Group_266" data-name="Group 266" transform="translate(1.064 30.529)">
            <path id="Path_121" d="M1694.455-7142.9h-16.845a2.641 2.641 0 0 1-2.416-2.519l-6.552-45.863a3.6 3.6 0 0 1 .746-2.851 2.2 2.2 0 0 1 1.669-.8h29.952a2.2 2.2 0 0 1 1.669.8 3.61 3.61 0 0 1 .746 2.851l-6.552 45.863a2.64 2.64 0 0 1-2.417 2.519zm-16.728-2.388h16.609a1.044 1.044 0 0 0 .169-.471l6.552-45.859a1.36 1.36 0 0 0-.166-.93h-29.719a1.362 1.362 0 0 0-.166.93l6.552 45.859a1.038 1.038 0 0 0 .169.471z" class="cls-1" data-name="Path 121" transform="translate(-1668.6 7194.935)"/>
        </g>
        <g id="Group_267" data-name="Group 267" transform="translate(0 30.529)">
            <path id="Path_122" d="M1701.538-7189.9h-31.718a1.057 1.057 0 0 1-1.056-1.056v-1.424a1.057 1.057 0 0 1 1.056-1.056h32.492a1.057 1.057 0 0 1 1.055 1.056v.651a1.829 1.829 0 0 1-1.829 1.829z" class="cls-1" data-name="Path 122" transform="translate(-1667.57 7194.628)"/>
            <path id="Path_123" d="M1701.233-7189.012h-31.719a2.252 2.252 0 0 1-2.25-2.25v-1.422a2.252 2.252 0 0 1 2.25-2.25h32.492a2.252 2.252 0 0 1 2.25 2.25v.649a3.027 3.027 0 0 1-3.023 3.023zm-31.581-2.386h31.581a.635.635 0 0 0 .633-.637v-.514h-32.214z" class="cls-1" data-name="Path 123" transform="translate(-1667.264 7194.935)"/>
        </g>
        <g id="Group_268" data-name="Group 268" transform="translate(6.88 76.642)">
            <path id="Path_124" d="M1696.828-7131.991h-18.6a.819.819 0 0 1-.82-.82v-1.9a.818.818 0 0 1 .82-.819h19.2a.818.818 0 0 1 .82.819v1.295a1.419 1.419 0 0 1-1.42 1.425z" class="cls-1" data-name="Path 124" transform="translate(-1676.21 7136.719)"/>
            <path id="Path_125" d="M1696.522-7131.1h-18.6a2.016 2.016 0 0 1-2.014-2.013v-1.9a2.015 2.015 0 0 1 2.014-2.013h19.2a2.016 2.016 0 0 1 2.014 2.013v1.295a2.617 2.617 0 0 1-2.614 2.618zm-18.23-2.389h18.23a.226.226 0 0 0 .226-.225v-.922h-18.456z" class="cls-1" data-name="Path 125" transform="translate(-1675.904 7137.025)"/>
        </g>
    </g>
</svg>
