<svg xmlns="http://www.w3.org/2000/svg" width="46.976" height="83.58" viewBox="0 0 46.976 83.58">
    <defs>
        <style>
            .cls-1{fill:#fff}.cls-2{fill:#f0f0f0}
        </style>
    </defs>
    <g id="Group_271" data-name="Group 271">
        <path id="Path_126" d="M1859.268-7229.8l.019 76.937-40.355.019-.018-76.955h40.355m.019-3.321h-40.374a3.3 3.3 0 0 0-3.3 3.3v76.975a3.3 3.3 0 0 0 3.3 3.3h40.374a3.3 3.3 0 0 0 3.3-3.3v-76.975a3.3 3.3 0 0 0-3.3-3.3z" class="cls-1" data-name="Path 126" transform="translate(-1815.612 7233.126)"/>
        <path id="Path_127" d="M1817.8-7146.948v10.5h43.34v-10.5zm21.67 8.334a3.079 3.079 0 0 1-3.081-3.081 3.082 3.082 0 0 1 3.081-3.082 3.083 3.083 0 0 1 3.081 3.082 3.079 3.079 0 0 1-3.079 3.081z" class="cls-1" data-name="Path 127" transform="translate(-1815.985 7218.485)"/>
        <g id="Group_270" data-name="Group 270" transform="translate(13.462 29.511)">
            <path id="Path_128" d="M1839.584-7197.575a7.753 7.753 0 0 0-7.75 7.754 7.7 7.7 0 0 0 1.55 4.651 7.742 7.742 0 0 0 6.2 3.1 7.744 7.744 0 0 0 6.2-3.1 7.7 7.7 0 0 0 1.55-4.651 7.754 7.754 0 0 0-7.75-7.754zm-4.651 7.754a4.651 4.651 0 0 1 4.651-4.651 4.65 4.65 0 0 1 4.649 4.651 4.652 4.652 0 0 1-4.649 4.651 4.652 4.652 0 0 1-4.651-4.651z" class="cls-2" data-name="Path 128" transform="translate(-1831.834 7197.575)"/>
            <path id="Path_129" d="M1854.2-7181.082a1.55 1.55 0 0 1-1.55 1.551h-7.2a8.568 8.568 0 0 0 3.591-3.1h3.606a1.565 1.565 0 0 1 .682.155 1.554 1.554 0 0 1 .871 1.394z" class="cls-2" data-name="Path 129" transform="translate(-1834.151 7195.035)"/>
        </g>
    </g>
</svg>
