<svg xmlns="http://www.w3.org/2000/svg" width="194.424" height="41.223" viewBox="0 0 194.424 41.223">
  <g id="Group_1" data-name="Group 1" transform="translate(0 0)">
    <path id="Path_1" data-name="Path 1" d="M381.7,656.2l1.83,5.589a7.95,7.95,0,0,1-3.126,1.588,16.406,16.406,0,0,1-4.472.559q-4.426,0-6.843-2.125a7.371,7.371,0,0,1-2.413-5.835l.046-.892a12.962,12.962,0,0,1-8.743-4.7q-3.151-3.931-3.151-10.328a17.815,17.815,0,0,1,1.742-8.16,12.158,12.158,0,0,1,5.009-5.231,17.366,17.366,0,0,1,15.449,0,12.184,12.184,0,0,1,4.985,5.231,17.768,17.768,0,0,1,1.742,8.16q0,6.481-3.2,10.419a13.025,13.025,0,0,1-8.873,4.648A2.653,2.653,0,0,0,373,657.317a6.708,6.708,0,0,0,3.2.625A7.816,7.816,0,0,0,381.7,656.2Zm-17.3-9.3a6.341,6.341,0,0,0,9.815,0q1.676-2.324,1.676-6.84t-1.676-6.839a6.34,6.34,0,0,0-9.815,0q-1.7,2.323-1.7,6.839T364.4,646.9Z" transform="translate(-354.828 -622.979)" fill="#fff"/>
    <path id="Path_2" data-name="Path 2" d="M386.312,627.019v22.356h-6.8l-.225-4.159q-2.1,4.611-7.735,4.609a7.9,7.9,0,0,1-5.61-1.9q-2.034-1.9-2.034-5.972V627.019h7.6v13.012a4.814,4.814,0,0,0,.759,3.084,2.882,2.882,0,0,0,2.326.9,3.792,3.792,0,0,0,3-1.275,5.738,5.738,0,0,0,1.117-3.868V627.019Z" transform="translate(-332.004 -617.541)" fill="#fff"/>
    <path id="Path_3" data-name="Path 3" d="M391.354,629.955q3.1,3.062,3.105,8.561t-3.105,8.564q-3.109,3.061-8.7,3.063t-8.7-3.063q-3.109-3.066-3.105-8.564t3.105-8.561q3.109-3.061,8.7-3.063T391.354,629.955Zm-11.873,3.822a11.423,11.423,0,0,0,0,9.478,4.155,4.155,0,0,0,6.351,0,11.459,11.459,0,0,0,0-9.478,4.156,4.156,0,0,0-6.351,0Z" transform="translate(-314.56 -617.86)" fill="#fff"/>
    <path id="Path_4" data-name="Path 4" d="M389.361,646.989l-3.622,4.022v5.143h-7.6V624.321h7.6v18.868l8.54-9.39h8.406l-8.227,8.764,8.719,13.591h-8.406Z" transform="translate(-296.254 -624.321)" fill="#fff"/>
    <path id="Path_5" data-name="Path 5" d="M393.582,632.266a3.836,3.836,0,0,1,1.184,3,3.771,3.771,0,0,1-1.184,2.951,5.562,5.562,0,0,1-6.572,0,3.771,3.771,0,0,1-1.184-2.951,3.836,3.836,0,0,1,1.184-3,5.574,5.574,0,0,1,6.572,0Z" transform="translate(-276.935 -607.05)" fill="#fff"/>
    <path id="Path_6" data-name="Path 6" d="M413.3,645.179l-.58,4.247a6.2,6.2,0,0,1-3.042.716q-4.827,0-5.768-3.446-2.013,3.447-7.957,3.446a8.049,8.049,0,0,1-5.143-1.433,5,5,0,0,1-1.788-4.159,5.836,5.836,0,0,1,2.034-4.626q2.034-1.765,6.685-2.7l5.051-.984v-.8a3.36,3.36,0,0,0-.85-2.413,3.051,3.051,0,0,0-2.325-.9,4.5,4.5,0,0,0-2.772.8,3.974,3.974,0,0,0-1.384,2.638l-6.172-1.788a7.5,7.5,0,0,1,3.221-5.076,12.381,12.381,0,0,1,7.106-1.809q5.232,0,7.96,2.146t2.726,6.439v8.136q0,1.744,1.613,1.746A4.442,4.442,0,0,0,413.3,645.179Zm-11.757-.829a2.684,2.684,0,0,0,1.251-2.3v-1.925l-3.622.85a5.185,5.185,0,0,0-2.034.871,1.805,1.805,0,0,0-.6,1.454,1.76,1.76,0,0,0,.583,1.43,2.4,2.4,0,0,0,1.609.492A4.8,4.8,0,0,0,401.547,644.351Z" transform="translate(-268.892 -617.86)" fill="#fff"/>
    <path id="Path_7" data-name="Path 7" d="M417.342,629.931q2.419,3.046,2.417,8.5,0,5.543-2.459,8.627a8.165,8.165,0,0,1-6.752,3.088,7.127,7.127,0,0,1-6.752-4.2v13.145h-7.6V627.338h6.66l.225,4.739a8.339,8.339,0,0,1,2.884-3.776,7.59,7.59,0,0,1,4.584-1.409A8.178,8.178,0,0,1,417.342,629.931Zm-6.326,13.145a10.033,10.033,0,0,0,0-9.119,3.637,3.637,0,0,0-3.106-1.476,3.557,3.557,0,0,0-3.021,1.476,7.243,7.243,0,0,0-1.093,4.338v.446a7.364,7.364,0,0,0,1.071,4.293,3.506,3.506,0,0,0,3.042,1.518A3.629,3.629,0,0,0,411.016,643.075Z" transform="translate(-250.88 -617.86)" fill="#fff"/>
    <path id="Path_8" data-name="Path 8" d="M424.615,629.931q2.413,3.046,2.413,8.5,0,5.543-2.459,8.627a8.156,8.156,0,0,1-6.752,3.088,7.136,7.136,0,0,1-6.752-4.2v13.145h-7.6V627.338h6.66l.225,4.739a8.339,8.339,0,0,1,2.884-3.776,7.586,7.586,0,0,1,4.581-1.409A8.18,8.18,0,0,1,424.615,629.931Zm-6.327,13.145a10.033,10.033,0,0,0,0-9.119,3.644,3.644,0,0,0-3.109-1.476,3.555,3.555,0,0,0-3.018,1.476,7.217,7.217,0,0,0-1.1,4.338v.446a7.362,7.362,0,0,0,1.075,4.293,3.5,3.5,0,0,0,3.039,1.518A3.635,3.635,0,0,0,418.289,643.075Z" transform="translate(-232.604 -617.86)" fill="#fff"/>
  </g>
</svg>
