<svg xmlns="http://www.w3.org/2000/svg" width="33" height="33" viewBox="0 0 33 33">
    <defs>
        <style>
            .cls-1,.cls-2{fill:#fff}.cls-1{stroke:rgba(0,0,0,0)}
        </style>
    </defs>
    <g id="Group_28" data-name="Group 28" transform="translate(.5 .5)">
        <path id="Subtraction_1" d="M16 32A16 16 0 0 1 4.687 4.686a16 16 0 1 1 22.627 22.627A15.9 15.9 0 0 1 16 32zM10.055 8A2.01 2.01 0 0 0 8 10.055v11.893A2.008 2.008 0 0 0 10.055 24h11.891A2.008 2.008 0 0 0 24 21.948V10.055A2.01 2.01 0 0 0 21.946 8zm11.5 14.16H10.413a.636.636 0 0 1-.635-.635v-6.759h1.469a4.675 4.675 0 0 0-.2 1.374 4.975 4.975 0 0 0 9.945 0 4.674 4.674 0 0 0-.2-1.374h1.409v6.758a.637.637 0 0 1-.646.636zm-5.54-3.081a3.115 3.115 0 1 1 3.213-3.113 3.168 3.168 0 0 1-3.213 3.113zm5.45-6.137h-1.81a.72.72 0 0 1-.719-.719V10.5a.72.72 0 0 1 .719-.72h1.81a.721.721 0 0 1 .72.72v1.725a.72.72 0 0 1-.72.717z" class="cls-1" data-name="Subtraction 1"/>
        <g id="Group_27" data-name="Group 27" transform="translate(9.778 9.778)">
            <ellipse id="Ellipse_3" cx="3.214" cy="3.113" class="cls-2" data-name="Ellipse 3" rx="3.214" ry="3.113" transform="translate(3.024 3.075)"/>
            <rect id="Rectangle_6" width="3.249" height="3.165" class="cls-2" data-name="Rectangle 6" rx="1.582" transform="translate(9.158)"/>
            <path id="Path_49" d="M36.221 44.31H25.079a.636.636 0 0 1-.635-.635v-6.759h1.468a4.69 4.69 0 0 0-.2 1.373 4.975 4.975 0 0 0 9.945 0 4.677 4.677 0 0 0-.2-1.373h1.409v6.758a.638.638 0 0 1-.645.636z" class="cls-2" data-name="Path 49" transform="translate(-24.444 -31.927)"/>
            <g id="Group_26" data-name="Group 26">
                <ellipse id="Ellipse_4" cx="3.214" cy="3.113" class="cls-2" data-name="Ellipse 4" rx="3.214" ry="3.113" transform="translate(3.024 3.075)"/>
                <path id="Path_50" d="M36.859 36.916v6.758a.638.638 0 0 1-.638.635H25.079a.636.636 0 0 1-.635-.635v-6.758h1.468a4.69 4.69 0 0 0-.2 1.373 4.975 4.975 0 0 0 9.945 0 4.677 4.677 0 0 0-.2-1.373z" class="cls-2" data-name="Path 50" transform="translate(-24.444 -31.927)"/>
                <rect id="Rectangle_7" width="3.249" height="3.165" class="cls-2" data-name="Rectangle 7" rx="1.582" transform="translate(9.158)"/>
            </g>
        </g>
    </g>
</svg>
