<svg xmlns="http://www.w3.org/2000/svg" id="Group_25" width="32" height="32" data-name="Group 25" viewBox="0 0 32 32">
    <defs>
        <style>
            .cls-1{fill:#fff}
        </style>
    </defs>
    <g id="Group_24" data-name="Group 24">
        <path id="Path_48" d="M-488.5-225a16 16 0 0 0-16 16 16 16 0 0 0 16 16 16 16 0 0 0 16-16 16 16 0 0 0-16-16zm4.154 10.656h-1.506c-1.181 0-1.41.561-1.41 1.385v1.816h2.816v2.844h-2.815v7.3h-2.939v-7.3h-2.456v-2.844h2.456v-2.1a3.428 3.428 0 0 1 3.66-3.757h2.195v2.653z" class="cls-1" data-name="Path 48" transform="translate(504.5 225)"/>
    </g>
</svg>
