<?xml version="1.0" encoding="UTF-8"?>
<svg width="407px" height="339px" viewBox="0 0 407 339" version="1.1" xmlns="http://www.w3.org/2000/svg" xmlns:xlink="http://www.w3.org/1999/xlink">
    <!-- Generator: Sketch 51 (57462) - http://www.bohemiancoding.com/sketch -->
    <title>Group-2</title>
    <desc>Created with Sketch.</desc>
    <defs></defs>
    <g id="Page-1" stroke="none" stroke-width="1" fill="none" fill-rule="evenodd">
        <g id="Group-2" transform="translate(0.000000, 1.000000)">
            <circle id="Oval" fill="#F73523" fill-rule="nonzero" cx="183" cy="160" r="79"></circle>
            <path d="M209.33667,116.523134 L256.725696,89.163067 C260.872705,86.76879 266.175465,88.1896603 268.569742,92.3366696 L268.955095,93.0041207 C271.349372,97.15113 269.928502,102.45389 265.781493,104.848167 L218.392466,132.208234 C214.245457,134.602511 208.942697,133.181641 206.54842,129.034632 L206.163067,128.36718 C203.76879,124.220171 205.18966,118.917411 209.33667,116.523134 Z" id="Rectangle-Copy-3" fill="#F3F3EF" fill-rule="nonzero"></path>
            <path d="M197.060075,150.195374 L255.795769,116.284305 C256.809483,115.699038 258.105713,116.046361 258.690981,117.060075 C259.276248,118.073788 258.928925,119.370018 257.915211,119.955286 L199.179517,153.866355 C198.165803,154.451623 196.869573,154.104299 196.284305,153.090586 C195.699038,152.076872 196.046361,150.780642 197.060075,150.195374 Z" id="Rectangle-Copy-2" fill="#F3F3EF" fill-rule="nonzero"></path>
            <polygon id="Triangle-Copy" stroke="#58ACD1" points="100.003853 18 358 149.972402 85 308"></polygon>
            <path d="M166,60 C214.332031,-84.5 243.415609,75.2237736 271.358858,102.323329 C299.301107,129.421886 315,166.175883 315,204.5 C315,284.304456 235.789063,125.277344 166,273.039063 C96.2109375,420.800781 -30.5664062,275.367188 17,204.5 C64.5664062,133.632813 117.667969,204.5 166,60 Z" id="Fill-1" stroke="#F73523" stroke-dasharray="2,3"></path>
            <polygon id="Path-Copy-2" fill="#58ACD1" fill-rule="nonzero" points="52.0582733 288 55 290.941727 51.9426015 293.999966 54.999929 297.057714 52.0581341 299.999929 48.9999659 296.942181 45.942147 300 43 297.057853 46.0578188 294.000034 43.000071 290.941866 45.9422862 288.000071 49.0000341 291.057819"></polygon>
            <path d="M101,95.5 C101,93.5672098 102.56721,92 104.5,92 C105.428717,92 106.318737,92.3686354 106.97556,93.0244399 C107.631365,93.6812627 108,94.5712831 108,95.5 C108,97.4327902 106.43279,99 104.5,99 C102.56721,99 101,97.4327902 101,95.5" id="Fill-12" fill="#58ACD1" fill-rule="nonzero"></path>
            <rect id="Rectangle" fill="#F73523" fill-rule="nonzero" transform="translate(203.500000, 162.500000) rotate(-30.000000) translate(-203.500000, -162.500000) " x="-31" y="162" width="469" height="1"></rect>
        </g>
    </g>
</svg>