<?xml version="1.0" encoding="UTF-8"?>
<svg width="1115px" height="663px" viewBox="0 0 1115 663" version="1.1" xmlns="http://www.w3.org/2000/svg" xmlns:xlink="http://www.w3.org/1999/xlink">
    <!-- Generator: Sketch 51 (57462) - http://www.bohemiancoding.com/sketch -->
    <title>Group 2</title>
    <desc>Created with Sketch.</desc>
    <defs></defs>
    <g id="Page-1" stroke="none" stroke-width="1" fill="none" fill-rule="evenodd">
        <g id="Group-2" transform="translate(-4.000000, 1.000000)">
            <path d="M370.408013,238.722605 C399.662947,222.588086 435.297198,165.045443 477.310764,66.0946733 C540.331114,-82.3314807 849.651379,90.9015742 744.316116,172.654765 C638.980854,254.407955 696.686322,274.454064 718.813434,310.892716 C740.940547,347.331368 769.818798,410.592309 744.316116,448.751553 C718.813434,486.910798 697.349771,542.18119 697.349771,575.747327 C697.349771,609.313464 625.835856,659.793902 565.447411,626.803726 C505.058965,593.813549 455.438824,550.725828 424.883724,563.236577 C394.328624,575.747327 408.895336,602.868533 370.408013,575.747327 C331.920689,548.626122 268.12024,474.786452 268.12024,392.839584 C268.12024,310.892716 264.263488,261.957895 300.235539,261.957895 C324.216906,261.957895 347.60773,254.212798 370.408013,238.722605 Z" id="Path-2-Copy" stroke="#58ACD1" stroke-dasharray="2,3"></path>
            <rect id="Rectangle" fill="#F3F3EF" transform="translate(416.106147, 323.618706) rotate(-30.000000) translate(-416.106147, -323.618706) " x="1.73476078" y="323.118706" width="828.742773" height="1"></rect>
            <polygon id="Polygon" stroke="#58ACD1" points="762.593715 136.596017 762.593715 598.403983 362.656285 367.5"></polygon>
            <ellipse id="Path" fill="#18191E" cx="377.5" cy="289.5" rx="202.5" ry="201.5"></ellipse>
            <path d="M337.5,541 C486.893025,541 608,419.893025 608,270.5 C608,121.106975 486.893025,0 337.5,0 C188.106975,0 67,121.106975 67,270.5 C67,419.893025 188.106975,541 337.5,541 Z" id="Path-3-Copy-2" stroke="#F3F3E8" stroke-dasharray="2"></path>
            <circle id="Oval-4" fill="#F73523" cx="255.5" cy="209.5" r="131.5"></circle>
            <circle id="Oval-2-Copy-7" fill="#58ACD1" cx="1112" cy="622" r="7"></circle>
            <circle id="Oval-2" fill="#5086A8" cx="628" cy="648" r="14"></circle>
            <circle id="Oval-2-Copy-4" fill="#58ACD1" cx="346.5" cy="42.5" r="7.5"></circle>
            <circle id="Oval-2-Copy-5" fill="#58ACD1" cx="349.5" cy="139.5" r="4.5"></circle>
            <rect id="Rectangle-2-Copy-2" fill="#252934" transform="translate(190.748273, 221.622722) rotate(-30.000000) translate(-190.748273, -221.622722) " x="90.7482735" y="178.622722" width="200" height="86" rx="43"></rect>
            <rect id="Rectangle-2-Copy-3" fill="#252934" transform="translate(115.279547, 334.959292) rotate(-30.000000) translate(-115.279547, -334.959292) " x="-10.7204526" y="323.459292" width="252" height="23" rx="11.5"></rect>
            <polygon id="Fill-1" fill="#58ACD1" points="96.2522945 339 83 352.250473 69.7495271 339 57 351.747705 70.2504729 365 57 378.250473 69.7495271 391 83 377.749527 96.2522945 391 109 378.250473 95.7513487 365 109 351.747705"></polygon>
            <polygon id="Triangle-Copy-2" fill="#F3F3E8" transform="translate(377.500000, 444.500000) rotate(-64.000000) translate(-377.500000, -444.500000) " points="378.035656 434 388 455 367 451.449478"></polygon>
            <circle id="Oval-2-Copy-6" fill="#58ACD1" cx="1077.5" cy="381.5" r="4.5"></circle>
            <circle id="Oval-2" fill="#F3F3E8" cx="422.5" cy="374.5" r="6.5"></circle>
            <circle id="Oval-3" fill="#58ACD1" cx="951" cy="180" r="8"></circle>
            <path d="M432.005343,232.79253 L611.272602,129.29253 C626.577966,120.455974 646.148859,125.699979 654.985415,141.005343 C663.821971,156.310707 658.577966,175.8816 643.272602,184.718156 L464.005343,288.218156 C448.699979,297.054712 429.129086,291.810707 420.29253,276.505343 C411.455974,261.199979 416.699979,241.629086 432.005343,232.79253 Z" id="Rectangle-2-Copy-4" fill="#252934"></path>
            <path d="M345.001002,365.804849 L632.521436,199.804849 C635.391192,198.147995 639.060734,199.131246 640.717588,202.001002 C642.374443,204.870758 641.391192,208.5403 638.521436,210.197154 L351.001002,376.197154 C348.131246,377.854009 344.461704,376.870758 342.804849,374.001002 C341.147995,371.131246 342.131246,367.461704 345.001002,365.804849 Z" id="Rectangle-2-Copy-5" fill="#252934"></path>
            <polygon id="Polygon-Copy" fill="#F3F3E8" points="934.817931 50 934.817931 126 869 88"></polygon>
            <polygon id="Polygon-Copy-3" fill="#F3F3E8" points="889.817931 572 889.817931 593.729075 871 582.864537"></polygon>
            <polygon id="Polygon-Copy-2" fill="#F3F3E8" points="908.588457 159 908.588457 177 893 168"></polygon>
        </g>
    </g>
</svg>