<?xml version="1.0" encoding="UTF-8"?>
<svg width="204px" height="34px" viewBox="0 0 204 34" version="1.1" xmlns="http://www.w3.org/2000/svg" xmlns:xlink="http://www.w3.org/1999/xlink">
    <!-- Generator: Sketch 51 (57462) - http://www.bohemiancoding.com/sketch -->
    <title>ui / logo</title>
    <desc>Created with Sketch.</desc>
    <defs></defs>
    <g id="ui-/-logo" stroke="none" stroke-width="1" fill="none" fill-rule="evenodd">
        <path d="M50.6455289,20.62865 C50.099281,20.759975 49.6976033,21.096575 49.7515537,21.3877 C49.8080331,21.672875 50.2948512,21.79825 50.8436281,21.66735 C51.392405,21.539 51.7886033,21.199425 51.7346529,20.911275 C51.681124,20.625675 51.1913554,20.497325 50.6455289,20.62865 Z" id="Shape" fill="#F3F3EF" fill-rule="nonzero" opacity="0.25"></path>
        <path d="M46.8066198,13.82865 C45.7845124,14.494625 45.8085372,16.192925 47.0051405,16.702075 C48.434405,17.30855 49.8025537,16.37525 49.3566198,15.26685 C50.3728264,15.77175 50.5350992,17.628575 50.4845207,18.9975 C50.474405,19.129675 50.5350992,19.138175 50.5734545,19.006425 C50.8212893,18.19765 51.324124,15.028425 52.8313636,14.144425 C52.4060826,14.765775 53.1293554,15.492525 53.9529421,15.197575 C54.7516612,14.913675 55.4340496,13.185625 54.4077273,12.653525 L54.4094132,12.647575 C54.994438,12.5052 55.4302562,12.291 55.7703967,11.913175 C57.1655207,10.374675 56.729281,6.984025 53.7742314,7.13575 C53.1626529,7.16465 52.5679339,7.2879 52.1953388,7.561175 C50.9338264,5.296775 48.0352562,4.95635 46.3101074,5.814425 C44.4656777,6.7354 43.3955207,9.976875 44.5428099,12.214075 C44.8740992,12.850725 46.0715455,13.6629 46.8066198,13.82865" id="Shape" fill="#F3F3EF" fill-rule="nonzero"></path>
        <path d="M201.126298,5.515225 C202.658405,5.515225 203.875661,4.28995 203.875661,2.756125 C203.875661,1.220175 202.657983,0.000425 201.126298,0.000425 C199.590818,0.000425 198.376934,1.2206 198.376934,2.756125 C198.376512,4.28995 199.590818,5.515225 201.126298,5.515225 M201.126298,0.4199 C202.381066,0.4199 203.452909,1.452225 203.452909,2.7557 C203.452909,4.054925 202.381066,5.0864 201.126298,5.0864 C199.871529,5.0864 198.794207,4.0545 198.794207,2.7557 C198.793785,1.452225 199.871529,0.4199 201.126298,0.4199" id="Shape" fill="#F3F3EF" fill-rule="nonzero"></path>
        <path d="M201.237992,4.3197 C201.866851,4.3197 202.43586,3.91595 202.519736,3.2504 L202.094876,3.2504 C201.994562,3.6533 201.699521,3.893425 201.237992,3.893425 C200.536636,3.893425 200.129058,3.37195 200.129058,2.7217 C200.129058,2.167075 200.46414,1.56825 201.224926,1.56825 C201.68519,1.56825 202.010157,1.80115 202.094876,2.190025 L202.519736,2.190025 C202.394554,1.53255 201.876967,1.1407 201.233777,1.1407 C200.284587,1.1407 199.70757,1.82155 199.70757,2.733175 C199.70757,3.610375 200.311983,4.3197 201.237992,4.3197" id="Shape" fill="#F3F3EF" fill-rule="nonzero"></path>
        <polygon id="Shape" fill="#F3F3EF" fill-rule="nonzero" points="195.719876 29.667975 195.719876 17.776475 195.719876 6.9428 192.922041 6.9428 192.922041 17.19635 192.922041 32.2949 203.982719 32.2949 203.982719 29.667975"></polygon>
        <path d="M142.664702,19.55 L142.664702,22.170975 L150.133041,22.170975 C150.133041,26.876575 145.532926,30.10615 141.16505,30.10615 C138.531595,30.10615 135.863579,28.73 134.029264,26.876575 C132.162074,24.964075 131.095289,22.406425 131.095289,19.717875 C131.095289,18.24185 131.400868,16.819375 131.947959,15.52695 C133.521793,11.808625 137.113711,9.12645 141.363992,9.12645 C145.065917,9.12645 147.901264,10.906775 149.99943,13.903025 L152.033529,11.987125 C149.364669,8.4881 145.800149,6.50675 141.397711,6.50675 C135.491826,6.50675 130.496777,10.45075 128.861826,15.8474 C128.494711,17.062475 128.294504,18.350225 128.294504,19.684725 C128.294504,26.8124 134.163298,32.730525 141.23038,32.730525 C144.731678,32.730525 148.230025,31.182675 150.536826,28.492425 C152.832669,25.803025 153.199785,22.9806 153.134033,19.55 L142.664702,19.55 Z" id="Shape" fill="#F3F3EF" fill-rule="nonzero"></path>
        <polygon id="Shape" fill="#F3F3EF" fill-rule="nonzero" points="154.672041 14.1831 154.672041 32.2949 157.469876 32.2949 157.469876 14.1576 157.469876 6.9428 154.672041 6.9428"></polygon>
        <polygon id="Shape" fill="#F3F3EF" fill-rule="nonzero" points="173.693355 6.9428 158.68924 6.9428 158.68924 9.5659 164.755711 9.5659 164.755711 14.246 164.755711 32.2949 167.55776 32.2949 167.55776 14.3446 167.55776 9.5659 173.693355 9.5659"></polygon>
        <path d="M180.667711,5.735375 L176.64714,14.933225 L169.062893,32.295325 L172.134273,32.295325 L175.166876,25.0988 L185.901744,25.0988 L188.868595,32.295325 L191.970322,32.295325 L184.986273,15.8814 L180.667711,5.735375 Z M176.29857,22.4757 L179.382174,15.197575 L180.600694,12.3233 L181.908149,15.481475 L184.802504,22.476125 L176.29857,22.476125 L176.29857,22.4757 Z" id="Shape" fill="#F3F3EF" fill-rule="nonzero"></path>
        <polygon id="Shape" fill="#F3F3EF" fill-rule="nonzero" points="124.25581 16.387575 124.25581 32.2949 127.057017 32.2949 127.057017 16.050125 127.057017 6.942375 124.25581 6.942375"></polygon>
        <path d="M118.725471,10.000675 C115.757777,7.447275 112.689769,6.940675 108.921669,6.940675 L104.185835,6.940675 L104.185835,19.486675 L104.185835,32.2949 L108.855074,32.2949 C112.790083,32.2949 115.787281,31.78575 118.788694,29.0989 C121.558711,26.612225 122.892298,23.34865 122.892298,19.6486 C122.892298,18.5997 122.783554,17.579275 122.577025,16.601775 C122.040471,14.06155 120.791603,11.795875 118.725471,10.000675 M116.956909,27.048275 C114.654322,29.233625 112.089149,29.667125 109.019455,29.667125 L106.985355,29.667125 L106.985355,18.984325 L106.985355,9.5659 L109.019455,9.5659 C111.987149,9.5659 114.522818,9.96965 116.822876,12.018575 C118.317893,13.337775 119.304174,15.077725 119.772446,16.974925 C119.985719,17.828325 120.090248,18.7204 120.090248,19.615025 C120.090248,22.439575 119.024306,25.0988 116.956909,27.048275" id="Shape" fill="#F3F3EF" fill-rule="nonzero"></path>
        <path d="M90.8149835,11.1809 C90.4845372,11.9527 90.2489256,12.75935 89.9817025,13.563875 L89.7170083,13.563875 L86.9141157,6.940675 L76.5783967,6.940675 L77.9916446,9.268825 C76.1185537,7.41965 72.9860579,6.940675 69.8936033,6.940675 L59.2569421,6.940675 L59.2569421,22.216025 C59.0204876,21.07745 58.4392562,20.1297 57.3872231,19.642225 C55.6713471,18.8496 52.9877355,19.4259 51.5268595,19.7965 C45.558595,21.31035 36.8654132,19.642225 35.4551157,12.80015 C35.3708182,12.40405 35.3526942,11.371725 35.766595,11.2353 C36.0047355,11.153275 39.6215207,13.053025 39.9793636,12.112075 C40.1770413,11.591875 37.5882645,10.0368 37.4032314,9.911 C37.4032314,9.911 37.3273636,9.7597 37.4251488,9.67385 C38.1265041,9.068225 40.8990496,6.5875 39.6957025,6.51865 C35.1807273,6.257275 32.2454876,12.70155 31.8147273,18.433525 L29.9403719,6.94025 L20.636876,6.94025 L17.8049008,16.89545 C17.5043802,17.969425 17.3370496,19.144125 17.1718264,20.25465 L16.9370579,20.25465 L13.4694793,6.94025 L4.06777686,6.94025 L2.10364463,19.17005 L0,32.2932 L8.83395868,32.2932 L9.84089256,22.0796 L9.90327273,21.4659 C10.0035868,20.45695 10.0684959,19.4174 10.1355124,18.40845 L10.4364545,18.40845 C10.5017851,19.482 10.7348678,20.491375 11.0016694,21.567475 L11.2870165,22.502475 L14.2732562,32.2932 L19.6042314,32.2949 L21.9944876,24.821275 L23.238719,20.927425 C23.5067851,20.1212 23.6732727,19.246125 23.8401818,18.40845 L24.0058264,18.40845 L24.6115041,25.2076 L25.2407851,32.295325 L34.0743223,32.295325 L33.0614876,26.07205 L32.9944711,25.67935 C33.0614876,25.816625 33.1322975,25.947525 33.2039504,26.08225 C35.1078099,29.791225 38.8590496,32.569025 44.303405,33.684225 C46.9777438,34.2329 49.5686281,33.958775 51.4493058,33.470025 C55.3324711,32.4666 57.885843,29.903425 58.9901405,26.127725 C59.0032066,26.082675 59.0141653,26.0338 59.0272314,25.986625 C59.1220661,25.644925 59.1983554,25.303225 59.2577851,24.955575 L59.2577851,25.9709 L59.2577851,32.295325 L71.6946198,32.295325 C76.0957934,32.295325 80.8978017,30.5099 80.8978017,25.2994 C80.8978017,24.70695 80.8274132,24.152325 80.7013884,23.63765 C80.1762149,21.522 78.6276694,20.065525 76.4287686,19.2797 L76.4287686,19.079525 C78.6289339,18.3719 79.731124,16.187825 79.731124,13.9672 C79.731124,13.057275 79.6084711,12.25785 79.3867686,11.561275 L85.3478678,21.36475 L85.3478678,22.923225 L85.3478678,32.295325 L94.2850909,32.295325 L94.2850909,21.37495 L94.2850909,21.364325 L102.884702,6.940675 L92.6185289,6.940675 L90.8149835,11.1809 Z M50.505595,21.950825 C49.9568182,22.082575 49.4678926,21.95465 49.4105702,21.670325 C49.3566198,21.3775 49.7591405,21.04175 50.3074959,20.91 C50.8533223,20.778675 51.3439339,20.907025 51.3987273,21.191775 C51.4526777,21.48035 51.0547934,21.819075 50.505595,21.950825 L50.505595,21.950825 Z M67.728,13.0594 L68.3602314,13.0594 C69.6938182,13.0594 71.3936777,12.925525 71.3936777,14.8087 C71.3936777,16.55715 69.8931818,16.6906 68.5591736,16.6906 L67.7284215,16.6906 L67.7284215,13.0594 L67.728,13.0594 Z M72.3453967,24.74095 C71.9487769,26.2089 70.0917025,26.242475 68.7585372,26.242475 L67.7284215,26.242475 L67.7284215,25.2501 L67.7284215,22.03625 L68.6282975,22.03625 C70.0946529,22.03625 72.4267438,22.0048 72.4267438,24.12385 C72.4267438,24.35505 72.3976612,24.5582 72.3453967,24.74095 L72.3453967,24.74095 Z" id="Shape" fill="#F3F3EF" fill-rule="nonzero"></path>
    </g>
</svg>